<mxfile host="www.draw.io" modified="2020-02-28T15:22:13.914Z" agent="Mozilla/5.0 (Macintosh; Intel Mac OS X 10_13_6) AppleWebKit/605.1.15 (KHTML, like Gecko) Version/13.0.5 Safari/605.1.15" etag="9O9qhUffwucNB5L1tSyW" version="12.7.9" type="github">
  <diagram id="1Im3KlK5a-fqZDYA9Dqj" name="Page-1">
    <mxGraphModel dx="615" dy="474" grid="1" gridSize="10" guides="1" tooltips="1" connect="1" arrows="1" fold="1" page="1" pageScale="1" pageWidth="827" pageHeight="1169" math="0" shadow="0">
      <root>
        <mxCell id="0" />
        <mxCell id="1" parent="0" />
        <mxCell id="hU9EMZwozgbWL7tR4kAy-41" style="edgeStyle=orthogonalEdgeStyle;rounded=0;orthogonalLoop=1;jettySize=auto;html=1;exitX=0.5;exitY=1;exitDx=0;exitDy=0;entryX=0.479;entryY=0.558;entryDx=0;entryDy=0;entryPerimeter=0;endArrow=none;endFill=0;" parent="1" source="hU9EMZwozgbWL7tR4kAy-1" target="hU9EMZwozgbWL7tR4kAy-4" edge="1">
          <mxGeometry relative="1" as="geometry" />
        </mxCell>
        <mxCell id="hU9EMZwozgbWL7tR4kAy-1" value="&lt;font style=&quot;font-size: 10px&quot;&gt;Data Warehouse&lt;/font&gt;" style="shape=datastore;whiteSpace=wrap;html=1;fillColor=#f5f5f5;strokeColor=#666666;fontColor=#333333;" parent="1" vertex="1">
          <mxGeometry x="277.5" y="170" width="60" height="50" as="geometry" />
        </mxCell>
        <mxCell id="hU9EMZwozgbWL7tR4kAy-4" value="" style="line;strokeWidth=2;html=1;" parent="1" vertex="1">
          <mxGeometry x="150" y="240" width="330" height="10" as="geometry" />
        </mxCell>
        <mxCell id="hU9EMZwozgbWL7tR4kAy-7" value="&lt;font style=&quot;font-size: 8px&quot;&gt;Planetary mixer&lt;/font&gt;" style="text;html=1;strokeColor=none;fillColor=none;align=center;verticalAlign=middle;whiteSpace=wrap;rounded=0;" parent="1" vertex="1">
          <mxGeometry x="145" y="250" width="65" height="20" as="geometry" />
        </mxCell>
        <mxCell id="hU9EMZwozgbWL7tR4kAy-8" value="&lt;span style=&quot;font-size: 8px&quot;&gt;Extruder&lt;/span&gt;" style="text;html=1;strokeColor=none;fillColor=none;align=center;verticalAlign=middle;whiteSpace=wrap;rounded=0;" parent="1" vertex="1">
          <mxGeometry x="210" y="250" width="65" height="20" as="geometry" />
        </mxCell>
        <mxCell id="hU9EMZwozgbWL7tR4kAy-9" value="&lt;span style=&quot;font-size: 8px&quot;&gt;Coater&lt;/span&gt;" style="text;html=1;strokeColor=none;fillColor=none;align=center;verticalAlign=middle;whiteSpace=wrap;rounded=0;" parent="1" vertex="1">
          <mxGeometry x="275" y="250" width="65" height="20" as="geometry" />
        </mxCell>
        <mxCell id="hU9EMZwozgbWL7tR4kAy-10" value="&lt;span style=&quot;font-size: 8px&quot;&gt;Z-Folder&lt;/span&gt;" style="text;html=1;strokeColor=none;fillColor=none;align=center;verticalAlign=middle;whiteSpace=wrap;rounded=0;" parent="1" vertex="1">
          <mxGeometry x="340" y="250" width="65" height="20" as="geometry" />
        </mxCell>
        <mxCell id="hU9EMZwozgbWL7tR4kAy-11" value="&lt;span style=&quot;font-size: 8px&quot;&gt;Calender&lt;/span&gt;" style="text;html=1;strokeColor=none;fillColor=none;align=center;verticalAlign=middle;whiteSpace=wrap;rounded=0;" parent="1" vertex="1">
          <mxGeometry x="400" y="250" width="65" height="20" as="geometry" />
        </mxCell>
        <mxCell id="hU9EMZwozgbWL7tR4kAy-13" value="&lt;font style=&quot;font-size: 5px&quot;&gt;Day1&lt;/font&gt;" style="shape=note;whiteSpace=wrap;html=1;size=14;verticalAlign=top;align=left;spacingTop=-6;" parent="1" vertex="1">
          <mxGeometry x="160" y="280" width="32.5" height="20" as="geometry" />
        </mxCell>
        <mxCell id="hU9EMZwozgbWL7tR4kAy-14" value="&lt;span style=&quot;font-size: 8px&quot;&gt;...........&lt;/span&gt;" style="text;html=1;strokeColor=none;fillColor=none;align=center;verticalAlign=middle;whiteSpace=wrap;rounded=0;" parent="1" vertex="1">
          <mxGeometry x="440" y="250" width="65" height="20" as="geometry" />
        </mxCell>
        <mxCell id="hU9EMZwozgbWL7tR4kAy-16" value="&lt;font style=&quot;font-size: 5px&quot;&gt;Day2&lt;/font&gt;" style="shape=note;whiteSpace=wrap;html=1;size=14;verticalAlign=top;align=left;spacingTop=-6;" parent="1" vertex="1">
          <mxGeometry x="170" y="300" width="32.5" height="20" as="geometry" />
        </mxCell>
        <mxCell id="hU9EMZwozgbWL7tR4kAy-17" value="&lt;span style=&quot;font-size: 8px&quot;&gt;.....&lt;/span&gt;" style="text;html=1;strokeColor=none;fillColor=none;align=center;verticalAlign=middle;whiteSpace=wrap;rounded=0;rotation=90;" parent="1" vertex="1">
          <mxGeometry x="160" y="320" width="65" height="20" as="geometry" />
        </mxCell>
        <mxCell id="hU9EMZwozgbWL7tR4kAy-18" value="&lt;font style=&quot;font-size: 5px&quot;&gt;Day1&lt;/font&gt;" style="shape=note;whiteSpace=wrap;html=1;size=14;verticalAlign=top;align=left;spacingTop=-6;" parent="1" vertex="1">
          <mxGeometry x="230" y="280" width="32.5" height="20" as="geometry" />
        </mxCell>
        <mxCell id="hU9EMZwozgbWL7tR4kAy-19" value="&lt;font style=&quot;font-size: 5px&quot;&gt;Day2&lt;/font&gt;" style="shape=note;whiteSpace=wrap;html=1;size=14;verticalAlign=top;align=left;spacingTop=-6;" parent="1" vertex="1">
          <mxGeometry x="240" y="300" width="32.5" height="20" as="geometry" />
        </mxCell>
        <mxCell id="hU9EMZwozgbWL7tR4kAy-21" value="&lt;font style=&quot;font-size: 5px&quot;&gt;Day1&lt;/font&gt;" style="shape=note;whiteSpace=wrap;html=1;size=14;verticalAlign=top;align=left;spacingTop=-6;" parent="1" vertex="1">
          <mxGeometry x="295" y="280" width="32.5" height="20" as="geometry" />
        </mxCell>
        <mxCell id="hU9EMZwozgbWL7tR4kAy-22" value="&lt;font style=&quot;font-size: 5px&quot;&gt;Day2&lt;/font&gt;" style="shape=note;whiteSpace=wrap;html=1;size=14;verticalAlign=top;align=left;spacingTop=-6;" parent="1" vertex="1">
          <mxGeometry x="305" y="300" width="32.5" height="20" as="geometry" />
        </mxCell>
        <mxCell id="hU9EMZwozgbWL7tR4kAy-24" value="&lt;font style=&quot;font-size: 5px&quot;&gt;Day1&lt;/font&gt;" style="shape=note;whiteSpace=wrap;html=1;size=14;verticalAlign=top;align=left;spacingTop=-6;" parent="1" vertex="1">
          <mxGeometry x="350" y="280" width="32.5" height="20" as="geometry" />
        </mxCell>
        <mxCell id="hU9EMZwozgbWL7tR4kAy-25" value="&lt;font style=&quot;font-size: 5px&quot;&gt;Day2&lt;/font&gt;" style="shape=note;whiteSpace=wrap;html=1;size=14;verticalAlign=top;align=left;spacingTop=-6;" parent="1" vertex="1">
          <mxGeometry x="360" y="300" width="32.5" height="20" as="geometry" />
        </mxCell>
        <mxCell id="hU9EMZwozgbWL7tR4kAy-27" value="&lt;font style=&quot;font-size: 5px&quot;&gt;Day1&lt;/font&gt;" style="shape=note;whiteSpace=wrap;html=1;size=14;verticalAlign=top;align=left;spacingTop=-6;" parent="1" vertex="1">
          <mxGeometry x="415" y="280" width="32.5" height="20" as="geometry" />
        </mxCell>
        <mxCell id="hU9EMZwozgbWL7tR4kAy-28" value="&lt;font style=&quot;font-size: 5px&quot;&gt;Day2&lt;/font&gt;" style="shape=note;whiteSpace=wrap;html=1;size=14;verticalAlign=top;align=left;spacingTop=-6;" parent="1" vertex="1">
          <mxGeometry x="425" y="300" width="32.5" height="20" as="geometry" />
        </mxCell>
        <mxCell id="hU9EMZwozgbWL7tR4kAy-31" value="&lt;font style=&quot;font-size: 7px&quot;&gt;&amp;nbsp;All the Machine Power Data&lt;/font&gt;" style="text;html=1;strokeColor=none;fillColor=none;align=center;verticalAlign=middle;whiteSpace=wrap;rounded=0;" parent="1" vertex="1">
          <mxGeometry x="196.25" y="220" width="120" height="20" as="geometry" />
        </mxCell>
        <mxCell id="hU9EMZwozgbWL7tR4kAy-42" value="&lt;span style=&quot;font-size: 8px&quot;&gt;.....&lt;/span&gt;" style="text;html=1;strokeColor=none;fillColor=none;align=center;verticalAlign=middle;whiteSpace=wrap;rounded=0;rotation=90;" parent="1" vertex="1">
          <mxGeometry x="230" y="320" width="65" height="20" as="geometry" />
        </mxCell>
        <mxCell id="hU9EMZwozgbWL7tR4kAy-43" value="&lt;span style=&quot;font-size: 8px&quot;&gt;.....&lt;/span&gt;" style="text;html=1;strokeColor=none;fillColor=none;align=center;verticalAlign=middle;whiteSpace=wrap;rounded=0;rotation=90;" parent="1" vertex="1">
          <mxGeometry x="295" y="320" width="65" height="20" as="geometry" />
        </mxCell>
        <mxCell id="hU9EMZwozgbWL7tR4kAy-44" value="&lt;span style=&quot;font-size: 8px&quot;&gt;.....&lt;/span&gt;" style="text;html=1;strokeColor=none;fillColor=none;align=center;verticalAlign=middle;whiteSpace=wrap;rounded=0;rotation=90;" parent="1" vertex="1">
          <mxGeometry x="350" y="320" width="65" height="20" as="geometry" />
        </mxCell>
        <mxCell id="hU9EMZwozgbWL7tR4kAy-45" value="&lt;span style=&quot;font-size: 8px&quot;&gt;.....&lt;/span&gt;" style="text;html=1;strokeColor=none;fillColor=none;align=center;verticalAlign=middle;whiteSpace=wrap;rounded=0;rotation=90;" parent="1" vertex="1">
          <mxGeometry x="415" y="320" width="65" height="20" as="geometry" />
        </mxCell>
        <mxCell id="_BsNh5nk4Pey6JfAYXOk-28" style="edgeStyle=orthogonalEdgeStyle;rounded=0;orthogonalLoop=1;jettySize=auto;html=1;exitX=0.5;exitY=1;exitDx=0;exitDy=0;" edge="1" parent="1" source="_BsNh5nk4Pey6JfAYXOk-1" target="_BsNh5nk4Pey6JfAYXOk-12">
          <mxGeometry relative="1" as="geometry" />
        </mxCell>
        <mxCell id="_BsNh5nk4Pey6JfAYXOk-1" value="&lt;font style=&quot;font-size: 9px&quot;&gt;Original Power Data&lt;/font&gt;" style="text;html=1;strokeColor=none;fillColor=none;align=center;verticalAlign=middle;whiteSpace=wrap;rounded=0;" vertex="1" parent="1">
          <mxGeometry x="60" y="280" width="80" height="30" as="geometry" />
        </mxCell>
        <mxCell id="_BsNh5nk4Pey6JfAYXOk-2" value="&lt;font style=&quot;font-size: 5px&quot;&gt;Day1&lt;/font&gt;" style="shape=note;whiteSpace=wrap;html=1;size=14;verticalAlign=top;align=left;spacingTop=-6;" vertex="1" parent="1">
          <mxGeometry x="160" y="350" width="32.5" height="20" as="geometry" />
        </mxCell>
        <mxCell id="_BsNh5nk4Pey6JfAYXOk-3" value="&lt;font style=&quot;font-size: 5px&quot;&gt;Day2&lt;/font&gt;" style="shape=note;whiteSpace=wrap;html=1;size=14;verticalAlign=top;align=left;spacingTop=-6;" vertex="1" parent="1">
          <mxGeometry x="170" y="370" width="32.5" height="20" as="geometry" />
        </mxCell>
        <mxCell id="_BsNh5nk4Pey6JfAYXOk-4" value="&lt;font style=&quot;font-size: 5px&quot;&gt;Day1&lt;/font&gt;" style="shape=note;whiteSpace=wrap;html=1;size=14;verticalAlign=top;align=left;spacingTop=-6;" vertex="1" parent="1">
          <mxGeometry x="230" y="350" width="32.5" height="20" as="geometry" />
        </mxCell>
        <mxCell id="_BsNh5nk4Pey6JfAYXOk-5" value="&lt;font style=&quot;font-size: 5px&quot;&gt;Day2&lt;/font&gt;" style="shape=note;whiteSpace=wrap;html=1;size=14;verticalAlign=top;align=left;spacingTop=-6;" vertex="1" parent="1">
          <mxGeometry x="240" y="370" width="32.5" height="20" as="geometry" />
        </mxCell>
        <mxCell id="_BsNh5nk4Pey6JfAYXOk-6" value="&lt;font style=&quot;font-size: 5px&quot;&gt;Day1&lt;/font&gt;" style="shape=note;whiteSpace=wrap;html=1;size=14;verticalAlign=top;align=left;spacingTop=-6;" vertex="1" parent="1">
          <mxGeometry x="295" y="350" width="32.5" height="20" as="geometry" />
        </mxCell>
        <mxCell id="_BsNh5nk4Pey6JfAYXOk-7" value="&lt;font style=&quot;font-size: 5px&quot;&gt;Day2&lt;/font&gt;" style="shape=note;whiteSpace=wrap;html=1;size=14;verticalAlign=top;align=left;spacingTop=-6;" vertex="1" parent="1">
          <mxGeometry x="305" y="370" width="32.5" height="20" as="geometry" />
        </mxCell>
        <mxCell id="_BsNh5nk4Pey6JfAYXOk-8" value="&lt;font style=&quot;font-size: 5px&quot;&gt;Day1&lt;/font&gt;" style="shape=note;whiteSpace=wrap;html=1;size=14;verticalAlign=top;align=left;spacingTop=-6;" vertex="1" parent="1">
          <mxGeometry x="350" y="350" width="32.5" height="20" as="geometry" />
        </mxCell>
        <mxCell id="_BsNh5nk4Pey6JfAYXOk-9" value="&lt;font style=&quot;font-size: 5px&quot;&gt;Day2&lt;/font&gt;" style="shape=note;whiteSpace=wrap;html=1;size=14;verticalAlign=top;align=left;spacingTop=-6;" vertex="1" parent="1">
          <mxGeometry x="360" y="370" width="32.5" height="20" as="geometry" />
        </mxCell>
        <mxCell id="_BsNh5nk4Pey6JfAYXOk-10" value="&lt;font style=&quot;font-size: 5px&quot;&gt;Day1&lt;/font&gt;" style="shape=note;whiteSpace=wrap;html=1;size=14;verticalAlign=top;align=left;spacingTop=-6;" vertex="1" parent="1">
          <mxGeometry x="415" y="350" width="32.5" height="20" as="geometry" />
        </mxCell>
        <mxCell id="_BsNh5nk4Pey6JfAYXOk-11" value="&lt;font style=&quot;font-size: 5px&quot;&gt;Day2&lt;/font&gt;" style="shape=note;whiteSpace=wrap;html=1;size=14;verticalAlign=top;align=left;spacingTop=-6;" vertex="1" parent="1">
          <mxGeometry x="425" y="370" width="32.5" height="20" as="geometry" />
        </mxCell>
        <mxCell id="_BsNh5nk4Pey6JfAYXOk-29" style="edgeStyle=orthogonalEdgeStyle;rounded=0;orthogonalLoop=1;jettySize=auto;html=1;exitX=0.5;exitY=1;exitDx=0;exitDy=0;" edge="1" parent="1" source="_BsNh5nk4Pey6JfAYXOk-12" target="_BsNh5nk4Pey6JfAYXOk-23">
          <mxGeometry relative="1" as="geometry" />
        </mxCell>
        <mxCell id="_BsNh5nk4Pey6JfAYXOk-12" value="&lt;font style=&quot;font-size: 9px&quot;&gt;Denoised Power Data&lt;/font&gt;" style="text;html=1;strokeColor=none;fillColor=none;align=center;verticalAlign=middle;whiteSpace=wrap;rounded=0;" vertex="1" parent="1">
          <mxGeometry x="60" y="350" width="80" height="30" as="geometry" />
        </mxCell>
        <mxCell id="_BsNh5nk4Pey6JfAYXOk-13" value="&lt;font style=&quot;font-size: 5px&quot;&gt;Day1&lt;/font&gt;" style="shape=note;whiteSpace=wrap;html=1;size=14;verticalAlign=top;align=left;spacingTop=-6;" vertex="1" parent="1">
          <mxGeometry x="163.75" y="410" width="32.5" height="20" as="geometry" />
        </mxCell>
        <mxCell id="_BsNh5nk4Pey6JfAYXOk-14" value="&lt;font style=&quot;font-size: 5px&quot;&gt;Day2&lt;/font&gt;" style="shape=note;whiteSpace=wrap;html=1;size=14;verticalAlign=top;align=left;spacingTop=-6;" vertex="1" parent="1">
          <mxGeometry x="173.75" y="430" width="32.5" height="20" as="geometry" />
        </mxCell>
        <mxCell id="_BsNh5nk4Pey6JfAYXOk-15" value="&lt;font style=&quot;font-size: 5px&quot;&gt;Day1&lt;/font&gt;" style="shape=note;whiteSpace=wrap;html=1;size=14;verticalAlign=top;align=left;spacingTop=-6;" vertex="1" parent="1">
          <mxGeometry x="233.75" y="410" width="32.5" height="20" as="geometry" />
        </mxCell>
        <mxCell id="_BsNh5nk4Pey6JfAYXOk-16" value="&lt;font style=&quot;font-size: 5px&quot;&gt;Day2&lt;/font&gt;" style="shape=note;whiteSpace=wrap;html=1;size=14;verticalAlign=top;align=left;spacingTop=-6;" vertex="1" parent="1">
          <mxGeometry x="243.75" y="430" width="32.5" height="20" as="geometry" />
        </mxCell>
        <mxCell id="_BsNh5nk4Pey6JfAYXOk-17" value="&lt;font style=&quot;font-size: 5px&quot;&gt;Day1&lt;/font&gt;" style="shape=note;whiteSpace=wrap;html=1;size=14;verticalAlign=top;align=left;spacingTop=-6;" vertex="1" parent="1">
          <mxGeometry x="298.75" y="410" width="32.5" height="20" as="geometry" />
        </mxCell>
        <mxCell id="_BsNh5nk4Pey6JfAYXOk-18" value="&lt;font style=&quot;font-size: 5px&quot;&gt;Day2&lt;/font&gt;" style="shape=note;whiteSpace=wrap;html=1;size=14;verticalAlign=top;align=left;spacingTop=-6;" vertex="1" parent="1">
          <mxGeometry x="308.75" y="430" width="32.5" height="20" as="geometry" />
        </mxCell>
        <mxCell id="_BsNh5nk4Pey6JfAYXOk-19" value="&lt;font style=&quot;font-size: 5px&quot;&gt;Day1&lt;/font&gt;" style="shape=note;whiteSpace=wrap;html=1;size=14;verticalAlign=top;align=left;spacingTop=-6;" vertex="1" parent="1">
          <mxGeometry x="353.75" y="410" width="32.5" height="20" as="geometry" />
        </mxCell>
        <mxCell id="_BsNh5nk4Pey6JfAYXOk-20" value="&lt;font style=&quot;font-size: 5px&quot;&gt;Day2&lt;/font&gt;" style="shape=note;whiteSpace=wrap;html=1;size=14;verticalAlign=top;align=left;spacingTop=-6;" vertex="1" parent="1">
          <mxGeometry x="363.75" y="430" width="32.5" height="20" as="geometry" />
        </mxCell>
        <mxCell id="_BsNh5nk4Pey6JfAYXOk-21" value="&lt;font style=&quot;font-size: 5px&quot;&gt;Day1&lt;/font&gt;" style="shape=note;whiteSpace=wrap;html=1;size=14;verticalAlign=top;align=left;spacingTop=-6;" vertex="1" parent="1">
          <mxGeometry x="418.75" y="410" width="32.5" height="20" as="geometry" />
        </mxCell>
        <mxCell id="_BsNh5nk4Pey6JfAYXOk-22" value="&lt;font style=&quot;font-size: 5px&quot;&gt;Day2&lt;/font&gt;" style="shape=note;whiteSpace=wrap;html=1;size=14;verticalAlign=top;align=left;spacingTop=-6;" vertex="1" parent="1">
          <mxGeometry x="428.75" y="430" width="32.5" height="20" as="geometry" />
        </mxCell>
        <mxCell id="_BsNh5nk4Pey6JfAYXOk-23" value="&lt;font style=&quot;font-size: 9px&quot;&gt;Power Data with machine state&lt;/font&gt;" style="text;html=1;strokeColor=none;fillColor=none;align=center;verticalAlign=middle;whiteSpace=wrap;rounded=0;" vertex="1" parent="1">
          <mxGeometry x="60" y="410" width="80" height="30" as="geometry" />
        </mxCell>
        <mxCell id="_BsNh5nk4Pey6JfAYXOk-30" value="&lt;span style=&quot;font-size: 8px&quot;&gt;.....&lt;/span&gt;" style="text;html=1;strokeColor=none;fillColor=none;align=center;verticalAlign=middle;whiteSpace=wrap;rounded=0;rotation=90;" vertex="1" parent="1">
          <mxGeometry x="160" y="390" width="65" height="20" as="geometry" />
        </mxCell>
        <mxCell id="_BsNh5nk4Pey6JfAYXOk-31" value="&lt;span style=&quot;font-size: 8px&quot;&gt;.....&lt;/span&gt;" style="text;html=1;strokeColor=none;fillColor=none;align=center;verticalAlign=middle;whiteSpace=wrap;rounded=0;rotation=90;" vertex="1" parent="1">
          <mxGeometry x="160" y="460" width="65" height="20" as="geometry" />
        </mxCell>
        <mxCell id="_BsNh5nk4Pey6JfAYXOk-32" value="&lt;span style=&quot;font-size: 8px&quot;&gt;.....&lt;/span&gt;" style="text;html=1;strokeColor=none;fillColor=none;align=center;verticalAlign=middle;whiteSpace=wrap;rounded=0;rotation=90;" vertex="1" parent="1">
          <mxGeometry x="233.75" y="390" width="65" height="20" as="geometry" />
        </mxCell>
        <mxCell id="_BsNh5nk4Pey6JfAYXOk-33" value="&lt;span style=&quot;font-size: 8px&quot;&gt;.....&lt;/span&gt;" style="text;html=1;strokeColor=none;fillColor=none;align=center;verticalAlign=middle;whiteSpace=wrap;rounded=0;rotation=90;" vertex="1" parent="1">
          <mxGeometry x="295" y="390" width="65" height="20" as="geometry" />
        </mxCell>
        <mxCell id="_BsNh5nk4Pey6JfAYXOk-34" value="&lt;span style=&quot;font-size: 8px&quot;&gt;.....&lt;/span&gt;" style="text;html=1;strokeColor=none;fillColor=none;align=center;verticalAlign=middle;whiteSpace=wrap;rounded=0;rotation=90;" vertex="1" parent="1">
          <mxGeometry x="350" y="390" width="65" height="20" as="geometry" />
        </mxCell>
        <mxCell id="_BsNh5nk4Pey6JfAYXOk-35" value="&lt;span style=&quot;font-size: 8px&quot;&gt;.....&lt;/span&gt;" style="text;html=1;strokeColor=none;fillColor=none;align=center;verticalAlign=middle;whiteSpace=wrap;rounded=0;rotation=90;" vertex="1" parent="1">
          <mxGeometry x="415" y="390" width="65" height="20" as="geometry" />
        </mxCell>
        <mxCell id="_BsNh5nk4Pey6JfAYXOk-36" value="&lt;span style=&quot;font-size: 8px&quot;&gt;.....&lt;/span&gt;" style="text;html=1;strokeColor=none;fillColor=none;align=center;verticalAlign=middle;whiteSpace=wrap;rounded=0;rotation=90;" vertex="1" parent="1">
          <mxGeometry x="233.75" y="460" width="65" height="20" as="geometry" />
        </mxCell>
        <mxCell id="_BsNh5nk4Pey6JfAYXOk-37" value="&lt;span style=&quot;font-size: 8px&quot;&gt;.....&lt;/span&gt;" style="text;html=1;strokeColor=none;fillColor=none;align=center;verticalAlign=middle;whiteSpace=wrap;rounded=0;rotation=90;" vertex="1" parent="1">
          <mxGeometry x="295" y="460" width="65" height="20" as="geometry" />
        </mxCell>
        <mxCell id="_BsNh5nk4Pey6JfAYXOk-38" value="&lt;span style=&quot;font-size: 8px&quot;&gt;.....&lt;/span&gt;" style="text;html=1;strokeColor=none;fillColor=none;align=center;verticalAlign=middle;whiteSpace=wrap;rounded=0;rotation=90;" vertex="1" parent="1">
          <mxGeometry x="350" y="460" width="65" height="20" as="geometry" />
        </mxCell>
        <mxCell id="_BsNh5nk4Pey6JfAYXOk-39" value="&lt;span style=&quot;font-size: 8px&quot;&gt;.....&lt;/span&gt;" style="text;html=1;strokeColor=none;fillColor=none;align=center;verticalAlign=middle;whiteSpace=wrap;rounded=0;rotation=90;" vertex="1" parent="1">
          <mxGeometry x="418.75" y="460" width="65" height="20" as="geometry" />
        </mxCell>
      </root>
    </mxGraphModel>
  </diagram>
</mxfile>
